<?xml version="1.0" standalone="no"?>
<!DOCTYPE svg PUBLIC "-//W3C//DTD SVG 20010904//EN"
 "http://www.w3.org/TR/2001/REC-SVG-20010904/DTD/svg10.dtd">
<svg version="1.0" xmlns="http://www.w3.org/2000/svg"
 width="700.000000pt" height="700.000000pt" viewBox="0 0 700.000000 700.000000"
 preserveAspectRatio="xMidYMid meet">
<metadata>
Created by potrace 1.11, written by Peter Selinger 2001-2013
</metadata>
<g transform="translate(0.000000,700.000000) scale(0.100000,-0.100000)"
fill="#000000" stroke="none">
<path d="M3420 6960 c-30 -4 -75 -13 -100 -20 -25 -6 -758 -297 -1630 -646
-1543 -617 -1586 -635 -1627 -677 -23 -24 -46 -61 -52 -83 -8 -27 -11 -615
-11 -1974 0 -1584 3 -1944 14 -1985 30 -113 104 -214 197 -268 24 -14 765
-314 1647 -666 1184 -474 1612 -641 1642 -641 30 0 458 167 1642 641 882 352
1622 651 1645 665 93 54 169 157 199 269 11 41 14 401 14 1985 0 1359 -3 1947
-11 1974 -6 22 -29 59 -52 83 -41 42 -84 60 -1627 677 -873 349 -1613 641
-1645 649 -79 20 -177 27 -245 17z m633 -635 c273 -109 496 -200 494 -201 -1
-1 -607 -243 -1346 -538 l-1343 -537 -519 207 c-286 115 -519 210 -519 213 0
5 2456 990 2610 1048 69 26 109 13 623 -192z m1619 -648 c279 -111 508 -204
508 -208 0 -3 -603 -246 -1340 -541 l-1340 -536 -513 205 c-281 112 -516 208
-520 213 -11 10 2663 1080 2683 1074 8 -3 243 -96 522 -207z m-3807 -1101
l1410 -564 3 -1735 2 -1735 -1417 567 -1418 567 -3 1732 c-1 953 1 1732 5
1732 5 0 643 -254 1418 -564z m4693 -1167 l-3 -1732 -1417 -566 -1418 -567 0
1732 0 1732 428 171 c235 95 868 349 1407 565 539 217 986 395 993 395 10 1
12 -348 10 -1730z"/>
</g>
</svg>
